<svg width="19" height="18" viewBox="0 0 19 18" fill="none" xmlns="http://www.w3.org/2000/svg">
<path d="M9.99967 7.33335L8.83301 6.16669L10.1455 4.83335H6.66634V3.16669H10.1455L8.81217 1.83335L9.99967 0.666687L13.333 4.00002L9.99967 7.33335ZM5.83301 17.3334C5.37467 17.3334 4.98231 17.1702 4.65592 16.8438C4.32954 16.5174 4.16634 16.125 4.16634 15.6667C4.16634 15.2084 4.32954 14.816 4.65592 14.4896C4.98231 14.1632 5.37467 14 5.83301 14C6.29134 14 6.6837 14.1632 7.01009 14.4896C7.33648 14.816 7.49967 15.2084 7.49967 15.6667C7.49967 16.125 7.33648 16.5174 7.01009 16.8438C6.6837 17.1702 6.29134 17.3334 5.83301 17.3334ZM14.1663 17.3334C13.708 17.3334 13.3156 17.1702 12.9893 16.8438C12.6629 16.5174 12.4997 16.125 12.4997 15.6667C12.4997 15.2084 12.6629 14.816 12.9893 14.4896C13.3156 14.1632 13.708 14 14.1663 14C14.6247 14 15.017 14.1632 15.3434 14.4896C15.6698 14.816 15.833 15.2084 15.833 15.6667C15.833 16.125 15.6698 16.5174 15.3434 16.8438C15.017 17.1702 14.6247 17.3334 14.1663 17.3334ZM0.833008 2.33335V0.666687H3.56217L7.10384 8.16669H12.9372L16.1872 2.33335H18.083L14.4163 8.95835C14.2636 9.23613 14.0587 9.45141 13.8018 9.60419C13.5448 9.75697 13.2636 9.83335 12.958 9.83335H6.74967L5.83301 11.5H15.833V13.1667H5.83301C5.20801 13.1667 4.73231 12.8959 4.40592 12.3542C4.07954 11.8125 4.06912 11.2639 4.37467 10.7084L5.49967 8.66669L2.49967 2.33335H0.833008Z" fill="#F1F1F1" fill-opacity="0.9"/>
</svg>
