<svg width="37" height="38" viewBox="0 0 37 38" fill="none" xmlns="http://www.w3.org/2000/svg">
<path d="M18.4091 24.846L26.371 16.8841L24.392 14.9511L18.4091 20.9341L12.4261 14.9511L10.4472 16.8841L18.4091 24.846ZM18.4091 37.3182C15.8932 37.3182 13.5153 36.8349 11.2756 35.8685C9.0358 34.902 7.07983 33.5827 5.40767 31.9105C3.73551 30.2383 2.41619 28.2824 1.44972 26.0426C0.483239 23.8028 0 21.425 0 18.9091C0 16.3625 0.483239 13.9693 1.44972 11.7295C2.41619 9.48977 3.73551 7.54148 5.40767 5.88466C7.07983 4.22784 9.0358 2.91619 11.2756 1.94972C13.5153 0.983239 15.8932 0.5 18.4091 0.5C20.9557 0.5 23.3489 0.983239 25.5886 1.94972C27.8284 2.91619 29.7767 4.22784 31.4335 5.88466C33.0903 7.54148 34.402 9.48977 35.3685 11.7295C36.3349 13.9693 36.8182 16.3625 36.8182 18.9091C36.8182 21.425 36.3349 23.8028 35.3685 26.0426C34.402 28.2824 33.0903 30.2383 31.4335 31.9105C29.7767 33.5827 27.8284 34.902 25.5886 35.8685C23.3489 36.8349 20.9557 37.3182 18.4091 37.3182ZM18.4091 34.5568C22.7659 34.5568 26.4631 33.0304 29.5006 29.9776C32.5381 26.9247 34.0568 23.2352 34.0568 18.9091C34.0568 14.5523 32.5381 10.8551 29.5006 7.81761C26.4631 4.78011 22.7659 3.26136 18.4091 3.26136C14.083 3.26136 10.3935 4.78011 7.34062 7.81761C4.28778 10.8551 2.76136 14.5523 2.76136 18.9091C2.76136 23.2352 4.28778 26.9247 7.34062 29.9776C10.3935 33.0304 14.083 34.5568 18.4091 34.5568Z" fill="#555555"/>
</svg>
