<svg width="20" height="20" viewBox="0 0 20 20" fill="none" xmlns="http://www.w3.org/2000/svg">
<path d="M3.74124 16.2483H4.65918L14.5062 6.42211L13.5883 5.50417L3.74124 15.3303V16.2483ZM2.4895 17.5V14.8296L14.4853 2.85466C14.5966 2.74339 14.7287 2.65647 14.8817 2.59388C15.0347 2.53129 15.1946 2.5 15.3615 2.5C15.5145 2.5 15.6675 2.53129 15.8205 2.59388C15.9735 2.65647 16.1126 2.74339 16.2378 2.85466L17.1557 3.7726C17.2809 3.89777 17.3713 4.03686 17.4269 4.18985C17.4825 4.34284 17.5104 4.49583 17.5104 4.64882C17.5104 4.80181 17.4791 4.95828 17.4165 5.11822C17.3539 5.27816 17.267 5.41377 17.1557 5.52503L5.15988 17.5H2.4895ZM14.0472 5.96314L13.5883 5.50417L14.5062 6.42211L14.0472 5.96314Z" fill="#555555"/>
</svg>
