<svg width="16" height="14" viewBox="0 0 16 14" fill="none" xmlns="http://www.w3.org/2000/svg">
<path d="M8 13.8717L7.23125 13.1779C5.90912 11.9639 4.81612 10.9167 3.95225 10.0362C3.08825 9.15568 2.4 8.36856 1.8875 7.67481C1.375 6.98106 1.01562 6.35293 0.809375 5.79043C0.603125 5.22793 0.5 4.65918 0.5 4.08418C0.5 2.9573 0.878125 2.01618 1.63437 1.2608C2.39062 0.505554 3.325 0.12793 4.4375 0.12793C5.15 0.12793 5.80937 0.29668 6.41562 0.63418C7.02187 0.97168 7.55 1.45918 8 2.09668C8.525 1.42168 9.08125 0.924805 9.66875 0.606055C10.2563 0.287305 10.8875 0.12793 11.5625 0.12793C12.675 0.12793 13.6094 0.505554 14.3656 1.2608C15.1219 2.01618 15.5 2.9573 15.5 4.08418C15.5 4.65918 15.3969 5.22793 15.1906 5.79043C14.9844 6.35293 14.625 6.98106 14.1125 7.67481C13.6 8.36856 12.9117 9.15568 12.0477 10.0362C11.1839 10.9167 10.0909 11.9639 8.76875 13.1779L8 13.8717ZM8 12.3904C9.2655 11.2279 10.3069 10.2311 11.1241 9.39981C11.9414 8.56855 12.5906 7.84043 13.0719 7.21543C13.5531 6.59043 13.8906 6.0333 14.0844 5.54405C14.2781 5.05493 14.375 4.56918 14.375 4.08681C14.375 3.26006 14.1125 2.58105 13.5875 2.0498C13.0625 1.51855 12.3889 1.25293 11.5666 1.25293C10.9226 1.25293 10.3266 1.4498 9.77844 1.84355C9.23031 2.2373 8.7875 2.79043 8.45 3.50293H7.53125C7.20625 2.80293 6.76969 2.25293 6.22156 1.85293C5.67344 1.45293 5.07737 1.25293 4.43337 1.25293C3.61112 1.25293 2.9375 1.51855 2.4125 2.0498C1.8875 2.58105 1.625 3.26118 1.625 4.09018C1.625 4.57368 1.72188 5.0623 1.91562 5.55606C2.10938 6.04981 2.44687 6.61231 2.92812 7.24356C3.40937 7.8748 4.0625 8.60293 4.8875 9.42793C5.7125 10.2529 6.75 11.2404 8 12.3904Z" fill="#555555"/>
</svg>
