<svg width="21" height="20" viewBox="0 0 21 20" fill="none" xmlns="http://www.w3.org/2000/svg">
<path d="M15.7292 19.5464H5.13251V7.32688L11.7674 0.453369L12.6981 1.19323C12.7936 1.27278 12.8652 1.38416 12.9129 1.52735C12.9607 1.67055 12.9845 1.84557 12.9845 2.05241V2.29108L11.9106 7.32688H19.0466C19.4285 7.32688 19.7626 7.47008 20.049 7.75647C20.3354 8.04287 20.4786 8.377 20.4786 8.75886V10.7121C20.4786 10.826 20.4905 10.9426 20.5144 11.062C20.5382 11.1813 20.5263 11.2966 20.4786 11.408L17.4714 18.3293C17.3301 18.6674 17.0947 18.9547 16.7652 19.1913C16.4355 19.4281 16.0902 19.5464 15.7292 19.5464ZM6.56449 18.1145H16.0394L19.0466 10.9784V8.75886H10.1444L11.4094 2.81614L6.56449 7.92354V18.1145ZM5.13251 7.32688V8.75886H1.95829V18.1145H5.13251V19.5464H0.526306V7.32688H5.13251Z" fill="#6CACE4"/>
</svg>
