<svg width="15" height="15" viewBox="0 0 15 15" fill="none" xmlns="http://www.w3.org/2000/svg">
<path d="M4.61351 14.144C3.48084 14.8363 2.07344 13.8244 2.36892 12.5302L2.89732 10.2159C3.01988 9.67914 2.83852 9.11837 2.42486 8.75503L0.63449 7.18245C-0.35707 6.3115 0.178302 4.67685 1.49298 4.56123L3.82894 4.35579C4.38455 4.30693 4.86716 3.95382 5.0819 3.43907L5.9665 1.31854C6.47961 0.0885522 8.22214 0.0885513 8.73525 1.31854L9.61985 3.43907C9.83459 3.95382 10.3172 4.30693 10.8728 4.35579L13.2088 4.56123C14.5235 4.67685 15.0588 6.3115 14.0673 7.18245L12.2769 8.75503C11.8632 9.11837 11.6819 9.67914 11.8044 10.2159L12.3328 12.5302C12.6283 13.8244 11.2209 14.8363 10.0882 14.144L8.1331 12.9491C7.65291 12.6556 7.04885 12.6556 6.56866 12.9491L4.61351 14.144Z" fill="#E7BE1B"/>
</svg>
