<svg width="18" height="24" viewBox="0 0 18 24" fill="none" xmlns="http://www.w3.org/2000/svg">
<path d="M9.0002 14.9328C10.0554 13.9603 10.9088 13.1586 11.5605 12.5276C12.2123 11.8966 12.714 11.3534 13.0657 10.8983C13.4174 10.4431 13.6554 10.0448 13.7795 9.70345C13.9037 9.36207 13.9657 8.99483 13.9657 8.60172C13.9657 7.8569 13.6968 7.21552 13.1588 6.67759C12.6209 6.13966 11.9795 5.87069 11.2347 5.87069C10.8002 5.87069 10.3812 5.95862 9.97779 6.13448C9.57434 6.31034 9.24848 6.55345 9.0002 6.86379C8.75193 6.55345 8.43124 6.31034 8.03813 6.13448C7.64503 5.95862 7.22089 5.87069 6.76572 5.87069C6.02089 5.87069 5.37951 6.13966 4.84158 6.67759C4.30365 7.21552 4.03468 7.8569 4.03468 8.60172C4.03468 8.99483 4.09158 9.3569 4.20537 9.68793C4.31917 10.019 4.55193 10.4121 4.90365 10.8672C5.25537 11.3224 5.75193 11.8655 6.39331 12.4966C7.03468 13.1276 7.90365 13.9397 9.0002 14.9328ZM0.310547 23.25V2.61207C0.310547 2.11552 0.496754 1.68103 0.869168 1.30862C1.24158 0.936207 1.67606 0.75 2.17262 0.75H15.8278C16.3243 0.75 16.7588 0.936207 17.1312 1.30862C17.5037 1.68103 17.6899 2.11552 17.6899 2.61207V23.25L9.0002 19.5259L0.310547 23.25ZM2.17262 20.4259L9.0002 17.5397L15.8278 20.4259V2.61207H2.17262V20.4259Z" fill="#555555"/>
</svg>
