<svg width="27" height="30" viewBox="0 0 27 30" fill="none" xmlns="http://www.w3.org/2000/svg">
<path d="M22.725 30C21.5375 30 20.5281 29.5844 19.6969 28.7531C18.8656 27.9219 18.45 26.9125 18.45 25.725C18.45 25.525 18.5125 25.1 18.6375 24.45L7.425 17.8875C7.018 18.321 6.5475 18.6606 6.0135 18.9064C5.4795 19.1521 4.9 19.275 4.275 19.275C3.0875 19.275 2.07812 18.8594 1.24687 18.0281C0.415625 17.1969 0 16.1875 0 15C0 13.8125 0.415625 12.8031 1.24687 11.9719C2.07812 11.1406 3.0875 10.725 4.275 10.725C4.875 10.725 5.4375 10.8412 5.9625 11.0737C6.4875 11.306 6.95 11.6272 7.35 12.0375L18.6375 5.55C18.5875 5.35 18.5437 5.14375 18.5062 4.93125C18.4688 4.71875 18.45 4.5 18.45 4.275C18.45 3.0875 18.8656 2.07812 19.6969 1.24687C20.5281 0.415625 21.5375 0 22.725 0C23.9125 0 24.9219 0.415625 25.7531 1.24687C26.5844 2.07812 27 3.0875 27 4.275C27 5.4625 26.5844 6.47188 25.7531 7.30312C24.9219 8.13437 23.9125 8.55 22.725 8.55C22.1432 8.55 21.5977 8.4375 21.0885 8.2125C20.5795 7.9875 20.125 7.6875 19.725 7.3125L8.325 13.65C8.4 13.85 8.45625 14.0687 8.49375 14.3062C8.53125 14.5437 8.55 14.7688 8.55 14.9812C8.55 15.1937 8.5375 15.3937 8.5125 15.5812C8.4875 15.7687 8.45 15.9625 8.4 16.1625L19.7625 22.65C20.1625 22.275 20.6136 21.9813 21.1159 21.7687C21.6184 21.5562 22.1567 21.45 22.731 21.45C23.927 21.45 24.9375 21.8656 25.7625 22.6969C26.5875 23.5281 27 24.5375 27 25.725C27 26.9125 26.5844 27.9219 25.7531 28.7531C24.9219 29.5844 23.9125 30 22.725 30ZM22.7265 27.75C23.3005 27.75 23.7812 27.5557 24.1687 27.1672C24.5562 26.779 24.75 26.2978 24.75 25.7235C24.75 25.1495 24.5557 24.6688 24.1672 24.2812C23.779 23.8938 23.2978 23.7 22.7235 23.7C22.1495 23.7 21.6687 23.8942 21.2812 24.2827C20.8937 24.671 20.7 25.1522 20.7 25.7265C20.7 26.3005 20.8942 26.7812 21.2827 27.1687C21.671 27.5562 22.1522 27.75 22.7265 27.75ZM4.2765 17.025C4.8505 17.025 5.33125 16.8307 5.71875 16.4422C6.10625 16.054 6.3 15.5727 6.3 14.9985C6.3 14.4245 6.10575 13.9437 5.71725 13.5562C5.329 13.1687 4.84775 12.975 4.2735 12.975C3.6995 12.975 3.21875 13.1692 2.83125 13.5577C2.44375 13.946 2.25 14.4272 2.25 15.0015C2.25 15.5755 2.44425 16.0562 2.83275 16.4437C3.221 16.8312 3.70225 17.025 4.2765 17.025ZM22.7265 6.3C23.3005 6.3 23.7812 6.10575 24.1687 5.71725C24.5562 5.329 24.75 4.84775 24.75 4.2735C24.75 3.6995 24.5557 3.21875 24.1672 2.83125C23.779 2.44375 23.2978 2.25 22.7235 2.25C22.1495 2.25 21.6687 2.44425 21.2812 2.83275C20.8937 3.221 20.7 3.70225 20.7 4.2765C20.7 4.8505 20.8942 5.33125 21.2827 5.71875C21.671 6.10625 22.1522 6.3 22.7265 6.3Z" fill="#555555"/>
</svg>
