<?xml version="1.0" standalone="no"?>
<!DOCTYPE svg PUBLIC "-//W3C//DTD SVG 20010904//EN"
 "http://www.w3.org/TR/2001/REC-SVG-20010904/DTD/svg10.dtd">
<svg version="1.0" xmlns="http://www.w3.org/2000/svg"
 width="296.000000pt" height="296.000000pt" viewBox="0 0 296.000000 296.000000"
 preserveAspectRatio="xMidYMid meet">
<metadata>
Created by potrace 1.14, written by Peter Selinger 2001-2017
</metadata>
<g transform="translate(0.000000,296.000000) scale(0.100000,-0.100000)"
fill="#000000" stroke="none">
<path d="M857 2597 c-85 -86 -144 -181 -204 -327 -8 -19 -21 -48 -29 -63 -8
-16 -14 -35 -14 -42 0 -8 -6 -29 -14 -47 -8 -18 -19 -51 -24 -73 -6 -22 -17
-67 -26 -100 -56 -221 -73 -378 -52 -500 15 -85 38 -168 55 -190 4 -5 14 -26
21 -45 8 -19 26 -52 42 -72 28 -36 28 -38 11 -55 -25 -24 -88 -57 -138 -73
-22 -7 -69 -28 -105 -47 -36 -18 -70 -33 -77 -33 -18 0 -83 -65 -83 -83 0 -11
32 -25 108 -50 89 -28 121 -34 187 -32 68 1 86 5 120 27 60 40 90 44 112 17
76 -95 160 -109 250 -43 l32 24 22 -31 c12 -17 26 -52 32 -78 5 -25 12 -60 16
-76 15 -71 76 -109 191 -120 94 -8 138 -21 144 -43 3 -9 2 -41 -3 -69 -8 -55
-3 -65 20 -37 24 29 58 36 93 19 26 -13 39 -13 62 -4 16 6 72 15 124 19 53 5
108 14 124 20 28 10 28 12 12 28 -13 14 -36 17 -116 17 -55 0 -100 3 -100 8 0
4 18 15 41 23 54 22 35 34 -53 34 -61 0 -68 2 -68 20 0 38 -92 243 -120 270
-16 14 -48 80 -59 122 -39 139 95 219 391 235 88 5 114 3 145 -11 46 -21 96
-47 103 -55 3 -3 15 -15 28 -25 21 -18 23 -18 42 -1 26 24 25 39 -10 110 -17
33 -30 69 -30 80 0 37 -46 91 -102 117 -110 53 -252 97 -358 112 -51 7 -110
39 -110 58 0 7 7 21 15 32 11 14 22 17 46 12 44 -8 79 2 79 25 0 54 42 87 70
54 7 -8 24 -15 39 -15 21 0 29 6 36 32 11 35 45 61 52 40 8 -20 34 -43 47 -39
6 2 13 19 16 38 4 27 10 35 29 37 15 2 28 -3 33 -12 13 -23 47 -20 67 5 15 19
20 20 40 8 20 -13 24 -12 42 10 10 13 19 18 19 11 0 -6 10 -10 22 -8 19 2 25
14 38 71 l16 68 30 -28 c54 -50 93 -73 123 -73 16 0 33 5 36 11 4 5 -22 38
-58 72 -66 64 -103 120 -91 138 7 12 64 4 74 -9 8 -12 107 -76 164 -106 56
-30 76 -33 76 -11 0 23 -43 60 -138 117 -121 73 -128 108 -14 69 114 -40 247
-62 265 -45 14 15 -11 38 -72 65 -114 53 -162 72 -231 96 -62 21 -73 31 -55
49 7 8 26 14 42 14 33 0 169 -27 192 -39 33 -16 257 -55 285 -50 63 12 -26 63
-214 123 -92 30 -141 48 -209 79 -35 16 -40 22 -27 29 22 12 281 -17 366 -42
19 -5 59 -10 87 -10 46 0 53 3 53 19 0 29 -42 57 -112 74 -71 18 -284 47 -340
47 -21 0 -38 4 -38 8 0 13 48 33 100 42 80 15 150 48 150 71 0 24 -233 2 -310
-29 -14 -5 -45 -18 -70 -27 -110 -43 -305 -149 -357 -194 -7 -6 -16 -11 -20
-11 -5 0 -23 -13 -41 -30 -18 -16 -37 -30 -43 -30 -5 0 -9 -4 -9 -10 0 -5 -5
-10 -11 -10 -6 0 -16 -6 -23 -12 -7 -7 -28 -24 -46 -38 -19 -14 -42 -33 -52
-42 -10 -10 -20 -18 -22 -18 -4 0 -111 -108 -196 -199 -44 -46 -149 -164 -194
-215 -25 -29 -36 -33 -36 -11 0 8 -4 15 -8 15 -4 0 -17 24 -27 53 -25 66 -29
286 -6 327 17 30 40 132 41 179 0 64 -22 112 -81 172 -31 33 -61 59 -68 59 -6
0 -11 4 -11 10 0 5 -13 16 -29 25 -16 8 -35 20 -43 27 -19 18 -56 38 -68 38
-6 0 -30 -19 -53 -43z m1132 -1346 c22 -30 28 -61 12 -61 -11 0 -51 62 -51 79
0 20 18 12 39 -18z"/>
</g>
</svg>
